<svg xmlns="http://www.w3.org/2000/svg" viewBox="0 0 2000 2000" enable-background="new 0 0 2000 2000"><g><path d="M1042.239 1899.015l2.721 2.134c2.876-2.522 5.975-4.836 8.587-7.602 10.786-11.418 21.323-23.07 32.134-34.463 65.527-69.065 131.05-138.134 196.682-207.099 57.602-60.527 115.363-120.906 173.025-181.373 51.721-54.234 103.438-108.463 155.094-162.761 24.353-25.602 40.602-56.01 48.408-90.134 6.079-26.567 7.413-53.498 1.502-81.065-7.229-33.716-19.234-64.851-42.084-90.458-31.766-35.597-65.577-69.363-97.721-104.632-61.512-67.498-122.438-135.527-183.662-203.289-57.07-63.169-114.214-126.269-171.318-189.408-12.065-13.338-12.065-13.378-25.239-.209-109.219 109.14-218.433 218.284-327.646 327.433-35.154 35.134-70.219 70.353-105.493 105.368-7.164 7.109-15.617 13.497-26.353 9.269-10.299-4.055-23.617-5.741-25.96-19.741-2.214-13.239-1.01-25.468 9.239-36.707 21.532-23.622 35.547-52.189 39.323-83.587 3.522-29.274 3.244-58.901-8.209-87.826-26.622-67.229-78.791-102.622-144-108.582-30.796-2.816-60.791 1.836-89.527 13.925-74.632 31.403-115.92 88.597-125.114 167.726-5.065 43.587 5.343 86.134 31.154 122.03 18.881 26.259 42.294 49.353 64.483 73.114 34.279 36.707 69.214 72.801 103.925 109.104 74.279 77.682 148.577 155.343 222.896 232.985 83.716 87.463 167.139 175.214 251.383 262.169 29.771 30.726 54.025 63.731 62.453 106.771 9.274 47.358 4.547 92.532-18.388 135.348-3.897 7.296-8.186 14.381-12.295 21.56zm-340.468-966.309c3.02-2.368 6.313-4.463 9.01-7.159 8.736-8.751 17.149-17.821 25.861-26.592 110.458-111.254 220.97-222.453 331.423-333.711 68.95-69.453 138.075-138.736 206.602-208.607 32.677-33.318 49.368-74.423 51.318-120.791.756-17.93-1.542-36.239-4.527-54.025-7.08-42.144-28.741-76.572-60.269-104.682-28.159-25.104-60.881-40.1-98.572-46.905-33.886-6.114-65.388-1.04-96.891 9.637-34.418 11.667-60.303 34.801-85.274 60.507-72.353 74.498-146.01 147.726-219.109 221.502-54.94 55.438-109.687 111.07-164.721 166.408-48.109 48.373-96.547 96.423-144.731 144.721-5.851 5.866-11.035 12.403-16.527 18.627 94.721-47.731 182.9-44.045 254.373 38.214 65.139 74.981 61.562 158.463 12.034 242.856zm163.115 1038.16c20.448-4.269 41.398-6.94 61.219-13.199 25.587-8.085 49.527-20.687 67.527-41.343 34.866-40 49.836-86.204 45.085-139.766-3.368-37.98-15.159-72.174-40.264-99.92-43.099-47.637-88.517-93.169-132.572-139.955-8.348-8.866-13.95-8.005-22.209.129-35.139 34.612-70.458 69.05-106.408 102.816-56.96 53.493-76.682 128.955-52.313 199.771 27.706 80.531 99.089 127.904 179.935 131.467z" fill="#fff"/><path d="M1042.239 1899.015c4.109-7.179 8.398-14.264 12.304-21.557 22.93-42.821 27.662-87.995 18.388-135.348-8.428-43.035-32.687-76.045-62.453-106.771-84.244-86.955-167.662-174.706-251.383-262.169-74.318-77.642-148.617-155.303-222.896-232.985-34.711-36.303-69.642-72.398-103.925-109.105-22.189-23.761-45.602-46.856-64.483-73.114-25.811-35.901-36.219-78.448-31.154-122.03 9.194-79.129 50.483-136.323 125.114-167.726 28.736-12.09 58.731-16.741 89.527-13.925 65.209 5.96 117.378 41.353 144 108.582 11.453 28.925 11.731 58.552 8.209 87.826-3.776 31.398-17.791 59.965-39.323 83.587-10.244 11.239-11.448 23.468-9.239 36.707 2.338 14 15.657 15.687 25.96 19.741 10.741 4.229 19.194-2.159 26.353-9.269 35.274-35.015 70.338-70.234 105.493-105.368 109.209-109.149 218.423-218.294 327.647-327.433 13.174-13.164 13.174-13.129 25.239.209 57.099 63.139 114.244 126.239 171.318 189.408 61.224 67.761 122.149 135.791 183.662 203.289 32.144 35.269 65.955 69.035 97.721 104.632 22.851 25.607 34.856 56.741 42.084 90.458 5.91 27.567 4.577 54.498-1.502 81.065-7.806 34.124-24.055 64.532-48.408 90.134-51.652 54.294-103.373 108.527-155.094 162.761-57.667 60.468-115.423 120.846-173.025 181.373-65.632 68.965-131.154 138.035-196.682 207.1-10.811 11.393-21.348 23.045-32.134 34.463-2.617 2.766-5.711 5.08-8.587 7.602-.92-.714-1.826-1.426-2.731-2.137zM701.771 932.706c49.527-84.393 53.104-167.876-12.04-242.851-71.473-82.264-159.652-85.945-254.373-38.214 5.493-6.224 10.677-12.761 16.527-18.627 48.184-48.299 96.622-96.348 144.731-144.721 55.035-55.338 109.786-110.965 164.716-166.408 73.1-73.776 146.756-147.005 219.109-221.503 24.965-25.706 50.856-48.836 85.274-60.507 31.502-10.682 63.005-15.756 96.891-9.637 37.692 6.801 70.413 21.801 98.572 46.905 31.527 28.109 53.184 62.542 60.269 104.682 2.99 17.786 5.284 36.095 4.527 54.025-1.95 46.368-18.637 87.473-51.318 120.791-68.522 69.871-137.652 139.149-206.602 208.607-110.447 111.264-220.959 222.463-331.422 333.712-8.711 8.776-17.124 17.841-25.861 26.592-2.686 2.687-5.98 4.781-9 7.154zM864.886 1970.866c-80.846-3.567-152.229-50.935-179.94-131.468-24.363-70.816-4.642-146.279 52.313-199.771 35.95-33.761 71.269-68.204 106.408-102.816 8.259-8.134 13.861-8.995 22.209-.129 44.055 46.781 89.473 92.318 132.572 139.955 25.105 27.746 36.896 61.945 40.264 99.921 4.751 53.562-10.219 99.766-45.085 139.766-18.005 20.657-41.94 33.259-67.527 41.343-19.811 6.263-40.767 8.935-61.214 13.199z" fill="#bbb"/></g></svg>